{
   "accessors" : [
      {
         "bufferView" : 2,
         "byteOffset" : 0,
         "componentType" : 5126,
         "count" : 16992,
         "max" : [ 1, 1, 1, 1 ],
         "min" : [ 0, 0.006584956776350737, 0.006584956776350737, 1 ],
         "name" : "accessor_color_m0-PolyPaper21_-179966",
         "type" : "VEC4"
      },
      {
         "bufferView" : 2,
         "byteOffset" : 271872,
         "componentType" : 5126,
         "count" : 6856,
         "max" : [ 1, 0.6940805315971375, 0.7226724624633789, 1 ],
         "min" : [ 0.006584956776350737, 0.006584956776350737, 0.006584956776350737, 1 ],
         "name" : "accessor_color_m2-PolyPaper15_-179978",
         "type" : "VEC4"
      },
      {
         "bufferView" : 0,
         "byteOffset" : 0,
         "componentType" : 5123,
         "count" : 26238,
         "max" : [ 16991 ],
         "min" : [ 0 ],
         "name" : "accessor_indices_0_m0-PolyPaper21_-179966",
         "type" : "SCALAR"
      },
      {
         "bufferView" : 0,
         "byteOffset" : 52476,
         "componentType" : 5123,
         "count" : 11604,
         "max" : [ 6855 ],
         "min" : [ 0 ],
         "name" : "accessor_indices_0_m2-PolyPaper15_-179978",
         "type" : "SCALAR"
      },
      {
         "bufferView" : 1,
         "byteOffset" : 203904,
         "componentType" : 5126,
         "count" : 16992,
         "max" : [ 1, 1, 1 ],
         "min" : [ -1, -1, -1 ],
         "name" : "accessor_normal_m0-PolyPaper21_-179966",
         "type" : "VEC3"
      },
      {
         "bufferView" : 1,
         "byteOffset" : 490080,
         "componentType" : 5126,
         "count" : 6856,
         "max" : [ 0.9999006, 0.9998861, 0.9980528 ],
         "min" : [ -0.999997, -0.9998844, -0.9981819 ],
         "name" : "accessor_normal_m2-PolyPaper15_-179978",
         "type" : "VEC3"
      },
      {
         "bufferView" : 1,
         "byteOffset" : 0,
         "componentType" : 5126,
         "count" : 16992,
         "max" : [ 2.010016, 1.550075, -0.005491618 ],
         "min" : [ -0.4854283, 0.8599078999999999, -0.4317691 ],
         "name" : "accessor_position_m0-PolyPaper21_-179966",
         "type" : "VEC3"
      },
      {
         "bufferView" : 1,
         "byteOffset" : 407808,
         "componentType" : 5126,
         "count" : 6856,
         "max" : [ 0.636682, 1.464713, 0.01648933 ],
         "min" : [ -0.3271104, 1.128037, -0.4521521 ],
         "name" : "accessor_position_m2-PolyPaper15_-179978",
         "type" : "VEC3"
      }
   ],
   "asset" : {
      "copyright" : "Unknown",
      "extras" : {
         "GOOGLE_processor_version" : 294144208
      },
      "generator" : "glTF 1-to-2 Upgrader for Google Blocks",
      "version" : "2.0"
   },
   "bufferViews" : [
      {
         "buffer" : 0,
         "byteLength" : 75684,
         "byteOffset" : 0,
         "name" : "ushortBufferView",
         "target" : 34963
      },
      {
         "buffer" : 0,
         "byteLength" : 572352,
         "byteOffset" : 75684,
         "byteStride" : 12,
         "name" : "vec3BufferView",
         "target" : 34962
      },
      {
         "buffer" : 0,
         "byteLength" : 381568,
         "byteOffset" : 648036,
         "byteStride" : 16,
         "name" : "vec4BufferView",
         "target" : 34962
      }
   ],
   "buffers" : [
      {
         "byteLength" : 1029604,
         "name" : "model",
         "uri" : "model.bin"
      }
   ],
   "cameras" : [
      {
         "perspective" : {
            "yfov" : 0.7853981633974483,
            "znear" : 0.1000000014901161
         },
         "type" : "perspective"
      }
   ],
   "extensions" : {
      "KHR_lights_punctual" : {
         "lights" : [
            {
               "color" : [ 1, 0.9333333333333333, 0.8666666666666667 ],
               "intensity" : 0.25,
               "name" : "headLight",
               "type" : "directional"
            },
            {
               "color" : [ 1, 0.9333333333333333, 0.8666666666666667 ],
               "intensity" : 0.324999988079071,
               "name" : "keyLight",
               "type" : "directional"
            }
         ]
      }
   },
   "extensionsUsed" : [ "GOOGLE_backgrounds", "GOOGLE_camera_settings", "KHR_lights_punctual" ],
   "extras" : {
      "GOOGLE_initial_camera_motion" : {
         "motionPath" : "FULL_ROTATION"
      },
      "GOOGLE_lighting_rig" : {
         "disableShadows" : false
      }
   },
   "materials" : [
      {
         "alphaMode" : "OPAQUE",
         "doubleSided" : false,
         "name" : "BlocksPaper",
         "pbrMetallicRoughness" : {
            "baseColorFactor" : [ 1, 1, 1, 1 ],
            "metallicFactor" : 0,
            "roughnessFactor" : 0.6
         }
      },
      {
         "alphaMode" : "BLEND",
         "doubleSided" : false,
         "name" : "BlocksGlass",
         "pbrMetallicRoughness" : {
            "baseColorFactor" : [ 0.2, 0.2, 1, 0.3 ],
            "metallicFactor" : 1,
            "roughnessFactor" : 0.4
         }
      },
      {
         "alphaMode" : "OPAQUE",
         "doubleSided" : true,
         "name" : "BlocksGem",
         "pbrMetallicRoughness" : {
            "baseColorFactor" : [ 1, 0.4, 1, 1 ],
            "metallicFactor" : 0,
            "roughnessFactor" : 0.1
         }
      }
   ],
   "meshes" : [
      {
         "name" : "mesh_m0-PolyPaper21_-179966",
         "primitives" : [
            {
               "attributes" : {
                  "COLOR_0" : 0,
                  "NORMAL" : 4,
                  "POSITION" : 6
               },
               "indices" : 2,
               "material" : 0,
               "mode" : 4
            }
         ]
      },
      {
         "name" : "mesh_m2-PolyPaper15_-179978",
         "primitives" : [
            {
               "attributes" : {
                  "COLOR_0" : 1,
                  "NORMAL" : 5,
                  "POSITION" : 7
               },
               "indices" : 3,
               "material" : 0,
               "mode" : 4
            }
         ]
      }
   ],
   "nodes" : [
      {
         "mesh" : 0,
         "name" : "node_MeshObject-1886359552-PolyPaper21"
      },
      {
         "mesh" : 1,
         "name" : "node_MeshObject1264449536-PolyPaper15"
      },
      {
         "children" : [ 3 ]
      },
      {
         "children" : [ 4 ],
         "extras" : {
            "isTransformNode" : 1
         },
         "translation" : [ 0.7610998868858024, 1.32046863098134, -0.2213701313650398 ]
      },
      {
         "children" : [ 0, 1 ],
         "translation" : [ -0.7610998868858024, -1.32046863098134, 0.2213701313650398 ]
      },
      {
         "camera" : 0,
         "children" : [ 6 ],
         "rotation" : [
            -0.1584419458142739,
            -0.3275674007832332,
            -0.05582045999929323,
            0.9297740714798249
         ],
         "translation" : [ -0.6214069048786135, 1.937235284729498, 1.294855461726766 ]
      },
      {
         "extensions" : {
            "KHR_lights_punctual" : {
               "light" : 0
            }
         },
         "extras" : {
            "isHeadLight" : 1
         },
         "name" : "headLightNode",
         "translation" : [ -1.774650967062076, 0.8873254835310379, 0.8873254835310379 ]
      },
      {
         "extensions" : {
            "KHR_lights_punctual" : {
               "light" : 1
            }
         },
         "extras" : {
            "isKeyLight" : 1
         },
         "name" : "keyLightNode",
         "rotation" : [ -0.7505326882858236, -0.3752663441429118, 0, 0.5439447166468927 ],
         "scale" : [ 0, 0, 1.792397476732697 ],
         "translation" : [ -1.365924667883325, 4.815992928566439, -2.021145609391295 ]
      }
   ],
   "scene" : 0,
   "scenes" : [
      {
         "extensions" : {
            "GOOGLE_backgrounds" : {
               "color" : [ 0.9333333333333333, 0.9333333333333333, 0.9333333333333333 ]
            },
            "GOOGLE_camera_settings" : {
               "pivot" : [ 0, 0, 0 ]
            }
         },
         "extras" : {
            "GOOGLE_camera_index" : {
               "cameraIndex" : 0,
               "nodeIndex" : 5
            },
            "GOOGLE_geometry_data" : {
               "stats" : {
                  "centroid" : [ 0.4264728088493719, 1.231197975101046, -0.2287481326585989 ],
                  "radius" : 1.774650967062076,
                  "stdev" : 0.4829712828057528
               },
               "visualCenterPoint" : [ 0.7610998868858024, 1.32046863098134, -0.2213701313650398 ]
            },
            "GOOGLE_hemi_light" : {
               "groundColor" : [ 0.9333333333333333, 0.9333333333333333, 0.9333333333333333 ]
            }
         },
         "name" : "defaultScene",
         "nodes" : [ 2, 5, 7 ]
      }
   ]
}
